PathFileType	4	(X/Y/Z)	T00_JumpTrial_0-2667.trc
DataRate	CameraRate	NumFrames	NumMarkers	Units	OrigDataRate	OrigDataStartFrame	OrigNumFrames
30	30	9	21	m	30	1333	2667
Frame#	Time	RHip			RKnee			RAnkle			RBigToe			RSmallToe			RHeel			LHip			LKnee			LAnkle			LBigToe			LSmallToe			LHeel			Neck			Head			Nose			RShoulder			RElbow			RWrist			LShoulder			LElbow			LWrist		
		X1	Y1	Z1	X2	Y2	Z2	X3	Y3	Z3	X4	Y4	Z4	X5	Y5	Z5	X6	Y6	Z6	X7	Y7	Z7	X8	Y8	Z8	X9	Y9	Z9	X10	Y10	Z10	X11	Y11	Z11	X12	Y12	Z12	X13	Y13	Z13	X14	Y14	Z14	X15	Y15	Z15	X16	Y16	Z16	X17	Y17	Z17	X18	Y18	Z18	X19	Y19	Z19	X20	Y20	Z20	X21	Y21	Z21
1334	44.46666666666667				-5.653636687107461	2.816129010420478	0.7716213920191719	-5.2063804896068735	3.743417000888439	1.050192794530246	-5.082589518128188	3.628455140012524	1.5881397594314914	-5.292679716373615	3.896692150540696	1.5036302039650802	-5.179808128153461	3.8622567874962472	1.008869473550453				-4.74375712336693	2.2804840597678764	0.18973402457504124	-4.700068073426191	3.312694262540088	-0.03405888771193209	-4.50462962050859	3.2473509792236457	0.5066248741197823	-4.184394961977656	3.0008722427623287	0.43837137219679756	-4.760693786887044	3.4833756010936723	-0.11578188809551136	-6.017691735037659	-0.3824224493537076	0.3186632526547758	-5.985601991621478	-1.2001272381808328	0.6764975707255922	-6.141121159781941	-0.6303917663391776	0.830766497106029	-6.75077195745858	0.09352305140578107	0.07339460727587227	-6.675030062479489	1.198453644332176	0.05411115176202048	-6.6286223748593045	2.006334181865667	0.3133670729515943									
1335	44.5				-5.655781045879095	2.822372055113246	0.8219370845186241	-5.176399856166572	3.7187447123170765	1.1590675368876635	-5.198047405612648	3.6766616555077505	1.710500363939736	-5.296530463178467	3.8544928116687207	1.6336868797416129	-5.155275706105044	3.852092585284007	1.1209102616845226				-4.786183757283289	2.2918359333226226	0.20743529288996973	-4.681608468371095	3.3019496949044127	-0.02952853181349939	-4.55368589559604	3.280326026583148	0.4991337044372804	-4.175042611581944	3.001398171042907	0.43578986403121395	-4.772604247036738	3.493470069307071	-0.11556308891222745	-6.046844891954118	-0.3716427402885073	0.36880484841033495	-5.998461767288878	-1.1853078429014179	0.7397205112338149	-6.1390845466413095	-0.6181774529343969	0.8798619326664611	-6.7725995053639885	0.10963410992137324	0.12676897480614177	-6.696202485683075	1.2173060927661183	0.11029438964858986	-6.679888935628245	2.0381747319550483	0.3752198421513372									
1336	44.53333333333333				-5.647209239572006	2.8336162241797274	0.8812690177962494	-5.202663096923216	3.738487264269239	1.2405732348550382	-5.283194628262674	3.7289990305760963	1.7967828883787251	-5.339683032157747	3.868452480540025	1.7241032222097261	-5.171594589121668	3.871837739169426	1.1993915384394997				-4.840010835583539	2.317805528422072	0.22228486743497924	-4.679771477946133	3.2998024066982845	-0.026562887315195308	-4.402879091516486	3.183999024612317	0.4927659038170016	-4.092604893764158	2.9609888059065814	0.4329227775906065	-4.749330519515014	3.4790025100813677	-0.11247994114700942	-6.0871101026013825	-0.3580328593240171	0.4215714472262016	-5.997678552580115	-1.1683608119857904	0.8029732149880624	-6.132116021458795	-0.6066532027878297	0.9360609521989199	-6.836353035322741	0.13934554686025763	0.1819282062261201	-6.704905276092479	1.2315834214816277	0.16995102794509367	-6.638984355603977	2.0333484387236185	0.44722477227461155									
1337	44.56666666666667				-5.6268578146792025	2.84171288420095	0.9435269751481725	-5.261961027920662	3.785651856035061	1.2895510605865594	-5.284642941791379	3.745996117694688	1.8443865192901208	-5.348042753011598	3.8862114900264846	1.7743129460798643	-5.185750717354225	3.8943148562824863	1.243673907230061				-4.868071189164297	2.334889549653684	0.24256280004237035	-4.692895255358904	3.305440965546424	-0.026154634952545008	-4.286902859573362	3.105463745195025	0.49282482041272757	-4.023513525314723	2.9198731269262836	0.4345659688264863	-4.711703027394542	3.4515992100580655	-0.10829268417184275	-6.107671094361148	-0.3449027398272193	0.47907724077772423	-6.022262400884212	-1.1506621433387867	0.8613371751913826	-6.163298540211398	-0.5912718135597383	0.9986684917218381	-6.911213436126784	0.1706547577757928	0.2443093129037655	-6.7473683428258955	1.255066223670453	0.22932631323648564	-6.578282688110254	2.0227804163891814	0.5213866151679172									
1338	44.6				-5.612776090827378	2.846590910855198	0.9992346608586913	-5.29119854808696	3.8167095507893922	1.3126459832101829	-5.219658642086163	3.7319170951451546	1.8646056468955552	-5.294498183066914	3.8781266670776855	1.7979804844914298	-5.150255850280072	3.8805303844658647	1.2624976040584894				-4.876569779105521	2.333010126591951	0.2711306437466788	-4.700972743207387	3.308645752688132	-0.026607929946911794	-4.380209043448979	3.169381748964831	0.4963218078392464	-4.082601006260529	2.955962063226045	0.4390102166117217	-4.692626091294989	3.4341348071369513	-0.10603448094571713	-6.115535723532477	-0.3316038303193477	0.5404469811032763	-6.138273391379551	-1.1276675154848228	0.9210283632412168	-6.241868356951761	-0.5717163761564882	1.0635393752809779	-6.971876204656642	0.19470537061394955	0.3135111518419707	-6.835042389492147	1.2944477667674545	0.29136071482467163	-6.62838166684255	2.0599002349118365	0.5919584443674876									
1339	44.63333333333333				-5.63205297838455	2.8598514727880824	1.0471220156077412	-5.253088217499912	3.80303508656821	1.3254159906774416	-5.160027662827289	3.7259606305053117	1.875918169401098	-5.234854957440424	3.8708253486170197	1.812836359070305	-5.085783918817283	3.839380510632506	1.2700396299105492				-4.875961495476688	2.311463858364071	0.3057559467156957	-4.690704324142729	3.3034649842588637	-0.024954729473913154	-4.567542020652654	3.3078775225007533	0.4985412149105418	-4.306321607726544	3.101928987440036	0.44265776273877117	-4.703303199543301	3.435676296410928	-0.10687832205607084	-6.157448037916501	-0.3142627151747816	0.601989338898616	-6.283913399923338	-1.1077235447403468	0.9853738177956551	-6.326260994889667	-0.5552257174815972	1.129851425532737	-7.03601097140472	0.21507712812758173	0.38431264088380535	-6.912217100968683	1.3339382171525256	0.3630100520609964	-6.783700325147639	2.1387874383519265	0.6617994638066408									
1340	44.66666666666666				-5.678752352002125	2.8828189147087833	1.0947565467505225	-5.1850054254486535	3.765343148665866	1.3391610462893162	-5.14719667329312	3.749273077797252	1.8891374477208642	-5.218060722151788	3.8909289215058616	1.8267646352466358	-5.054212049260694	3.816237163940234	1.2760746536893421				-4.86425591067869	2.2771072468016134	0.3444305862392927	-4.6686011809844	3.289819614784983	-0.01820475401008373	-4.68436642406753	3.4067283322581123	0.49626695571342944	-4.570039797671971	3.280015639447433	0.441854274503986	-4.729648406280526	3.445148092334271	-0.10866536466454134	-6.231622837478053	-0.2990752820666728	0.6646551448855371	-6.326012021838429	-1.1065791398408154	1.049502453808862	-6.375857425619783	-0.5487292199298608	1.1985363611981599	-7.12583385128296	0.2362576026924808	0.4547278588685883	-6.9445233968534685	1.3554145157260138	0.4440635163046478	-6.916000299207978	2.200979694986444	0.7376117362524166									
1341	44.7				-5.706597273793598	2.8967481691109933	1.1471283612829806	-5.158927380758497	3.750270538687564	1.3551449321394293	-5.163473992829825	3.788192320594617	1.9035191430280496	-5.231250833996887	3.9272104801502845	1.837423183233503	-5.076086489084796	3.829435809876469	1.28250058312164				-4.854283538200189	2.2435641015579937	0.3883841320052334	-4.658295653940458	3.2709688533037906	-0.005509624432507356	-4.730020591574161	3.4555040876811947	0.4888388536024172	-4.706233828062916	3.377916358415463	0.4349205708100843	-4.754536029281931	3.4453966478084204	-0.10692222069896758	-6.293612025522279	-0.29430174314071256	0.7321119251256257	-6.25987198353557	-1.1217145222070148	1.1114572449584275	-6.377735433956313	-0.5528418927650748	1.2683341407447446	-7.240437116813949	0.2578371000703279	0.5266874279374887	-6.959285092473653	1.3599109720132607	0.5276806348564053	-6.94453649447059	2.210316272633021	0.8201285467177187									
1342	44.73333333333333				-5.696900124505028	2.8951642159102855	1.202579102401225	-5.194502107422667	3.7729528622240673	1.3702505757267969	-5.180437303921558	3.825072906745011	1.914697831510281	-5.239363070364882	3.956974262605813	1.8388347373361498	-5.12217526253278	3.8593199291303293	1.2879656021802897				-4.8618316968094115	2.214198730171829	0.44373981019382924	-4.6776723060309555	3.2517820685789878	0.011024581992395829	-4.760434155074824	3.4874853866566955	0.47852165047265294	-4.7228047945212195	3.395665145659047	0.4250478958286691	-4.769239689375302	3.4253039958294247	-0.09732863292210772	-6.319586035089449	-0.2983016758411508	0.8042598559448211	-6.196771797851091	-1.1361056183767906	1.1750958840226213	-6.345713270210471	-0.563196839358054	1.3382376493891404	-7.353758742627663	0.2761160026799351	0.6028734463057893	-7.008004986815392	1.367179761155132	0.6078581129384035	-6.907616138445404	2.1869017913014637	0.9048534795045359									
